<svg xmlns="http://www.w3.org/2000/svg" xmlns:xlink="http://www.w3.org/1999/xlink" id="Layer_1" x="0" y="0" version="1.1" viewBox="0 0 15.9 16.1" xml:space="preserve" style="enable-background:new 0 0 15.9 16.1"><style type="text/css">.st0{fill:url(#SVGID_1_)}</style><g><linearGradient id="SVGID_1_" x1="2.405" x2="13.655" y1="29.891" y2="14.224" gradientTransform="matrix(1 0 0 -1 0 31)" gradientUnits="userSpaceOnUse"><stop offset="0" style="stop-color:#04befe"/><stop offset=".504" style="stop-color:#19a6f1"/><stop offset="1" style="stop-color:#318be3"/></linearGradient><path d="M15.2,5.5l-4.5-0.7l-2-4.3C8.6,0.2,8.3,0,7.9,0C7.6,0,7.3,0.2,7.1,0.5l-2,4.3L0.7,5.5C0.4,5.5,0.1,5.8,0,6.1 C-0.1,6.4,0,6.8,0.2,7l3.3,3.3L2.7,15c-0.1,0.3,0.1,0.7,0.3,0.9c0.3,0.2,0.6,0.2,0.9,0.1l4-2.2l4,2.2c0.1,0.1,0.3,0.1,0.4,0.1 c0.2,0,0.4-0.1,0.5-0.2c0.3-0.2,0.4-0.5,0.3-0.9l-0.8-4.7L15.6,7c0.2-0.2,0.3-0.6,0.2-0.9C15.8,5.7,15.5,5.5,15.2,5.5z" class="st0"/></g></svg>